<svg xmlns="http://www.w3.org/2000/svg" xmlns:xlink="http://www.w3.org/1999/xlink" width="500" zoomAndPan="magnify" viewBox="0 0 375 374.999991" height="500" preserveAspectRatio="xMidYMid meet" version="1.0"><defs><filter x="0%" y="0%" width="100%" height="100%" id="92dd728db6"><feColorMatrix values="0 0 0 0 1 0 0 0 0 1 0 0 0 0 1 0 0 0 1 0" color-interpolation-filters="sRGB"/></filter><g/><mask id="b867bc9dfa"><g filter="url(#92dd728db6)"><rect x="-37.5" width="450" fill="#000000" y="-37.499999" height="449.999989" fill-opacity="0.7"/></g></mask><clipPath id="7c7fa8786b"><path d="M 0.265625 1 L 175 1 L 175 176.355469 L 0.265625 176.355469 Z M 0.265625 1 " clip-rule="nonzero"/></clipPath><clipPath id="389c4620ed"><path d="M 193 1 L 368.515625 1 L 368.515625 176.355469 L 193 176.355469 Z M 193 1 " clip-rule="nonzero"/></clipPath><clipPath id="6f10a3a2e5"><path d="M 97 1 L 272 1 L 272 176.355469 L 97 176.355469 Z M 97 1 " clip-rule="nonzero"/></clipPath><clipPath id="5d5f6fe143"><rect x="0" width="370" y="0" height="177"/></clipPath></defs><rect x="-37.5" width="450" fill="#ffffff" y="-37.499999" height="449.999989" fill-opacity="1"/><rect x="-37.5" width="450" fill="#ffffff" y="-37.499999" height="449.999989" fill-opacity="1"/><g mask="url(#b867bc9dfa)"><g transform="matrix(1, 0, 0, 1, 3, 99)"><g clip-path="url(#5d5f6fe143)"><g clip-path="url(#7c7fa8786b)"><path fill="#ef4dc1" d="M 87.550781 1.164062 C 135.757812 1.164062 174.832031 40.308594 174.832031 88.605469 C 174.832031 136.898438 135.757812 176.042969 87.550781 176.042969 C 39.339844 176.042969 0.265625 136.898438 0.265625 88.605469 C 0.265625 40.308594 39.339844 1.164062 87.550781 1.164062 Z M 87.550781 1.164062 " fill-opacity="1" fill-rule="nonzero"/></g><g clip-path="url(#389c4620ed)"><path fill="#0ec6e5" d="M 281.234375 1.164062 C 329.441406 1.164062 368.515625 40.308594 368.515625 88.605469 C 368.515625 136.898438 329.441406 176.042969 281.234375 176.042969 C 233.023438 176.042969 193.949219 136.898438 193.949219 88.605469 C 193.949219 40.308594 233.023438 1.164062 281.234375 1.164062 Z M 281.234375 1.164062 " fill-opacity="1" fill-rule="nonzero"/></g><g clip-path="url(#6f10a3a2e5)"><path fill="#8419bc" d="M 184.417969 1.164062 C 232.625 1.164062 271.699219 40.308594 271.699219 88.605469 C 271.699219 136.898438 232.625 176.042969 184.417969 176.042969 C 136.207031 176.042969 97.082031 136.898438 97.082031 88.605469 C 97.082031 40.308594 136.207031 1.164062 184.417969 1.164062 Z M 184.417969 1.164062 " fill-opacity="1" fill-rule="nonzero"/></g><path fill="#ef4dc1" d="M 135.957031 15.839844 C 159.394531 31.507812 174.832031 58.265625 174.832031 88.605469 C 174.832031 118.945312 159.394531 145.703125 135.957031 161.371094 C 112.523438 145.703125 97.082031 118.945312 97.082031 88.605469 C 97.082031 58.265625 112.523438 31.507812 135.957031 15.839844 Z M 135.957031 15.839844 " fill-opacity="0.5" fill-rule="nonzero"/><path fill="#0ec6e5" d="M 232.824219 15.839844 C 256.257812 31.507812 271.699219 58.265625 271.699219 88.605469 C 271.699219 118.945312 256.257812 145.703125 232.824219 161.371094 C 209.390625 145.703125 193.949219 118.945312 193.949219 88.605469 C 193.949219 58.265625 209.390625 31.507812 232.824219 15.839844 Z M 232.824219 15.839844 " fill-opacity="0.5" fill-rule="nonzero"/></g></g></g><g fill="#ffffff" fill-opacity="1"><g transform="translate(35.960993, 241.012491)"><g><path d="M 20.09375 0.765625 C 18.550781 0.765625 17.78125 -0.00390625 17.78125 -1.546875 L 17.78125 -106.6875 C 17.78125 -108.238281 18.550781 -109.015625 20.09375 -109.015625 C 21.644531 -109.015625 22.421875 -108.238281 22.421875 -106.6875 L 22.421875 -1.546875 C 22.421875 -0.00390625 21.644531 0.765625 20.09375 0.765625 Z M 20.09375 0.765625 "/></g></g></g><g fill="#ffffff" fill-opacity="1"><g transform="translate(76.161465, 241.012491)"><g><path d="M 40.96875 3.09375 C 36.019531 3.09375 31.71875 2.394531 28.0625 1 C 24.40625 -0.382812 21.238281 -2.265625 18.5625 -4.640625 C 17.21875 -5.773438 15.898438 -7.164062 14.609375 -8.8125 C 13.316406 -10.457031 12.15625 -12.128906 11.125 -13.828125 C 10.101562 -15.535156 9.28125 -17.160156 8.65625 -18.703125 C 8.039062 -20.253906 7.734375 -21.492188 7.734375 -22.421875 C 7.734375 -23.035156 7.960938 -23.570312 8.421875 -24.03125 C 8.890625 -24.5 9.429688 -24.734375 10.046875 -24.734375 C 11.078125 -24.734375 11.75 -24.320312 12.0625 -23.5 C 13.09375 -20.613281 14.351562 -17.878906 15.84375 -15.296875 C 17.34375 -12.722656 19.273438 -10.457031 21.640625 -8.5 C 24.015625 -6.539062 26.820312 -4.890625 30.0625 -3.546875 C 33.3125 -2.210938 36.945312 -1.546875 40.96875 -1.546875 C 45.613281 -1.546875 49.789062 -2.238281 53.5 -3.625 C 57.207031 -5.019531 60.375 -6.953125 63 -9.421875 C 65.632812 -11.898438 67.644531 -14.835938 69.03125 -18.234375 C 70.425781 -21.640625 71.125 -25.351562 71.125 -29.375 C 71.125 -34.945312 69.65625 -39.203125 66.71875 -42.140625 C 63.78125 -45.078125 60.09375 -47.445312 55.65625 -49.25 C 51.226562 -51.050781 46.460938 -52.59375 41.359375 -53.875 C 36.253906 -55.164062 31.484375 -56.867188 27.046875 -58.984375 C 22.617188 -61.097656 18.9375 -64.035156 16 -67.796875 C 13.0625 -71.566406 11.59375 -76.800781 11.59375 -83.5 C 11.59375 -87.3125 12.335938 -90.914062 13.828125 -94.3125 C 15.328125 -97.71875 17.441406 -100.679688 20.171875 -103.203125 C 22.910156 -105.734375 26.238281 -107.71875 30.15625 -109.15625 C 34.070312 -110.601562 38.453125 -111.328125 43.296875 -111.328125 C 47.929688 -111.328125 52.15625 -110.628906 55.96875 -109.234375 C 59.789062 -107.847656 63.039062 -105.96875 65.71875 -103.59375 C 66.644531 -102.769531 67.625 -101.765625 68.65625 -100.578125 C 69.6875 -99.398438 70.613281 -98.140625 71.4375 -96.796875 C 72.257812 -95.453125 72.925781 -94.082031 73.4375 -92.6875 C 73.957031 -91.300781 74.21875 -90.039062 74.21875 -88.90625 C 74.21875 -88.289062 74.035156 -87.75 73.671875 -87.28125 C 73.316406 -86.820312 72.78125 -86.59375 72.0625 -86.59375 C 71.03125 -86.59375 70.304688 -87.054688 69.890625 -87.984375 C 69.066406 -90.148438 68.140625 -92.257812 67.109375 -94.3125 C 66.078125 -96.375 64.582031 -98.179688 62.625 -99.734375 C 60.25 -101.691406 57.488281 -103.335938 54.34375 -104.671875 C 51.207031 -106.015625 47.523438 -106.6875 43.296875 -106.6875 C 39.066406 -106.6875 35.273438 -106.09375 31.921875 -104.90625 C 28.578125 -103.726562 25.742188 -102.109375 23.421875 -100.046875 C 21.109375 -97.984375 19.332031 -95.535156 18.09375 -92.703125 C 16.851562 -89.867188 16.234375 -86.800781 16.234375 -83.5 C 16.234375 -79.0625 17.082031 -75.398438 18.78125 -72.515625 C 20.488281 -69.628906 22.734375 -67.234375 25.515625 -65.328125 C 28.296875 -63.421875 31.460938 -61.875 35.015625 -60.6875 C 38.578125 -59.5 42.238281 -58.363281 46 -57.28125 C 49.757812 -56.207031 53.414062 -55.023438 56.96875 -53.734375 C 60.53125 -52.441406 63.703125 -50.789062 66.484375 -48.78125 C 69.265625 -46.769531 71.503906 -44.21875 73.203125 -41.125 C 74.910156 -38.03125 75.765625 -34.113281 75.765625 -29.375 C 75.765625 -24.738281 74.9375 -20.4375 73.28125 -16.46875 C 71.632812 -12.5 69.289062 -9.070312 66.25 -6.1875 C 63.21875 -3.300781 59.5625 -1.035156 55.28125 0.609375 C 51 2.265625 46.226562 3.09375 40.96875 3.09375 Z M 40.96875 3.09375 "/></g></g></g><g fill="#ffffff" fill-opacity="1"><g transform="translate(159.654737, 241.012491)"><g><path d="M 20.09375 0 C 18.550781 0 17.78125 -0.769531 17.78125 -2.3125 L 17.78125 -106.6875 C 17.78125 -108.238281 18.550781 -109.015625 20.09375 -109.015625 C 21.644531 -109.015625 22.421875 -108.238281 22.421875 -106.6875 L 22.421875 -4.640625 L 75 -4.640625 C 76.539062 -4.640625 77.3125 -3.863281 77.3125 -2.3125 C 77.3125 -0.769531 76.539062 0 75 0 Z M 20.09375 0 "/></g></g></g><g fill="#ffffff" fill-opacity="1"><g transform="translate(238.509503, 241.012491)"><g><path d="M 50.25 3.09375 C 45.40625 3.09375 40.921875 2.191406 36.796875 0.390625 C 32.671875 -1.410156 29.085938 -4.035156 26.046875 -7.484375 C 23.015625 -10.941406 20.617188 -15.222656 18.859375 -20.328125 C 17.109375 -25.429688 16.234375 -31.285156 16.234375 -37.890625 L 16.234375 -106.6875 C 16.234375 -108.238281 17.007812 -109.015625 18.5625 -109.015625 C 20.101562 -109.015625 20.875 -108.238281 20.875 -106.6875 L 20.875 -37.890625 C 20.875 -32.109375 21.644531 -26.945312 23.1875 -22.40625 C 24.738281 -17.875 26.828125 -14.0625 29.453125 -10.96875 C 32.085938 -7.882812 35.207031 -5.539062 38.8125 -3.9375 C 42.414062 -2.34375 46.226562 -1.546875 50.25 -1.546875 C 54.269531 -1.546875 58.082031 -2.34375 61.6875 -3.9375 C 65.300781 -5.539062 68.421875 -7.882812 71.046875 -10.96875 C 73.679688 -14.0625 75.769531 -17.875 77.3125 -22.40625 C 78.851562 -26.945312 79.625 -32.109375 79.625 -37.890625 L 79.625 -106.6875 C 79.625 -108.238281 80.398438 -109.015625 81.953125 -109.015625 C 83.492188 -109.015625 84.265625 -108.238281 84.265625 -106.6875 L 84.265625 -37.890625 C 84.265625 -31.285156 83.390625 -25.429688 81.640625 -20.328125 C 79.890625 -15.222656 77.492188 -10.941406 74.453125 -7.484375 C 71.410156 -4.035156 67.828125 -1.410156 63.703125 0.390625 C 59.578125 2.191406 55.09375 3.09375 50.25 3.09375 Z M 50.25 3.09375 "/></g></g></g><g fill="#ffffff" fill-opacity="1"><g transform="translate(143.906245, 258.309974)"><g><path d="M 3.765625 0.3125 C 3.515625 0.3125 3.3125 0.242188 3.15625 0.109375 C 3.007812 -0.015625 2.914062 -0.15625 2.875 -0.3125 L 0.484375 -9.84375 C 0.484375 -9.863281 0.472656 -9.90625 0.453125 -9.96875 C 0.429688 -10.03125 0.410156 -10.097656 0.390625 -10.171875 C 0.378906 -10.253906 0.363281 -10.335938 0.34375 -10.421875 C 0.320312 -10.503906 0.3125 -10.578125 0.3125 -10.640625 C 0.3125 -10.835938 0.363281 -10.992188 0.46875 -11.109375 C 0.582031 -11.222656 0.71875 -11.28125 0.875 -11.28125 C 1.15625 -11.28125 1.34375 -11.191406 1.4375 -11.015625 C 1.539062 -10.847656 1.625 -10.644531 1.6875 -10.40625 L 3.765625 -1.765625 L 3.84375 -1.765625 L 5.921875 -10.640625 C 5.960938 -10.796875 6.054688 -10.941406 6.203125 -11.078125 C 6.359375 -11.210938 6.554688 -11.28125 6.796875 -11.28125 C 7.046875 -11.28125 7.242188 -11.210938 7.390625 -11.078125 C 7.535156 -10.941406 7.632812 -10.796875 7.6875 -10.640625 L 9.765625 -1.765625 L 9.84375 -1.765625 L 11.921875 -10.40625 C 11.972656 -10.644531 12.046875 -10.847656 12.140625 -11.015625 C 12.242188 -11.191406 12.4375 -11.28125 12.71875 -11.28125 C 12.875 -11.28125 13.003906 -11.222656 13.109375 -11.109375 C 13.222656 -10.992188 13.28125 -10.835938 13.28125 -10.640625 C 13.28125 -10.578125 13.269531 -10.503906 13.25 -10.421875 C 13.238281 -10.335938 13.222656 -10.253906 13.203125 -10.171875 C 13.191406 -10.097656 13.175781 -10.03125 13.15625 -9.96875 C 13.132812 -9.90625 13.125 -9.863281 13.125 -9.84375 L 10.71875 -0.3125 C 10.675781 -0.15625 10.578125 -0.015625 10.421875 0.109375 C 10.273438 0.242188 10.082031 0.3125 9.84375 0.3125 C 9.59375 0.3125 9.394531 0.242188 9.25 0.109375 C 9.101562 -0.015625 9.003906 -0.15625 8.953125 -0.3125 L 6.828125 -9.203125 L 6.765625 -9.203125 L 4.640625 -0.3125 C 4.597656 -0.15625 4.5 -0.015625 4.34375 0.109375 C 4.195312 0.242188 4.003906 0.3125 3.765625 0.3125 Z M 3.765625 0.3125 "/></g></g></g><g fill="#ffffff" fill-opacity="1"><g transform="translate(157.502981, 258.309974)"><g><path d="M 2.15625 0 C 2 0 1.863281 -0.0546875 1.75 -0.171875 C 1.644531 -0.285156 1.59375 -0.441406 1.59375 -0.640625 L 1.59375 -10.5625 C 1.59375 -10.757812 1.644531 -10.914062 1.75 -11.03125 C 1.863281 -11.144531 2 -11.203125 2.15625 -11.203125 L 7.84375 -11.203125 C 8 -11.203125 8.128906 -11.144531 8.234375 -11.03125 C 8.347656 -10.925781 8.40625 -10.796875 8.40625 -10.640625 C 8.40625 -10.484375 8.347656 -10.347656 8.234375 -10.234375 C 8.128906 -10.128906 8 -10.078125 7.84375 -10.078125 L 2.796875 -10.078125 L 2.796875 -6.234375 L 6.3125 -6.234375 C 6.476562 -6.234375 6.613281 -6.179688 6.71875 -6.078125 C 6.820312 -5.972656 6.875 -5.84375 6.875 -5.6875 C 6.875 -5.519531 6.820312 -5.382812 6.71875 -5.28125 C 6.613281 -5.175781 6.476562 -5.125 6.3125 -5.125 L 2.796875 -5.125 L 2.796875 -1.125 L 8 -1.125 C 8.15625 -1.125 8.285156 -1.066406 8.390625 -0.953125 C 8.503906 -0.847656 8.5625 -0.71875 8.5625 -0.5625 C 8.5625 -0.394531 8.503906 -0.257812 8.390625 -0.15625 C 8.285156 -0.0507812 8.15625 0 8 0 Z M 2.15625 0 "/></g></g></g><g fill="#ffffff" fill-opacity="1"><g transform="translate(166.380849, 258.309974)"><g><path d="M 2.15625 0 C 2 0 1.863281 -0.0546875 1.75 -0.171875 C 1.644531 -0.285156 1.59375 -0.441406 1.59375 -0.640625 L 1.59375 -10.5625 C 1.59375 -10.757812 1.644531 -10.914062 1.75 -11.03125 C 1.863281 -11.144531 2 -11.203125 2.15625 -11.203125 L 5.359375 -11.203125 C 6.359375 -11.203125 7.128906 -10.941406 7.671875 -10.421875 C 8.210938 -9.910156 8.484375 -9.238281 8.484375 -8.40625 C 8.484375 -7.925781 8.410156 -7.53125 8.265625 -7.21875 C 8.117188 -6.914062 7.960938 -6.679688 7.796875 -6.515625 C 7.597656 -6.316406 7.375 -6.171875 7.125 -6.078125 L 7.125 -6 C 7.5 -5.90625 7.828125 -5.734375 8.109375 -5.484375 C 8.234375 -5.378906 8.351562 -5.253906 8.46875 -5.109375 C 8.59375 -4.960938 8.703125 -4.789062 8.796875 -4.59375 C 8.890625 -4.40625 8.96875 -4.1875 9.03125 -3.9375 C 9.09375 -3.695312 9.125 -3.425781 9.125 -3.125 C 9.125 -2.144531 8.832031 -1.378906 8.25 -0.828125 C 7.664062 -0.273438 6.8125 0 5.6875 0 Z M 5.6875 -1.125 C 6.40625 -1.125 6.957031 -1.3125 7.34375 -1.6875 C 7.726562 -2.0625 7.921875 -2.59375 7.921875 -3.28125 C 7.921875 -3.914062 7.722656 -4.421875 7.328125 -4.796875 C 6.941406 -5.171875 6.363281 -5.359375 5.59375 -5.359375 L 2.796875 -5.359375 L 2.796875 -1.125 Z M 5.28125 -6.484375 C 5.957031 -6.484375 6.457031 -6.632812 6.78125 -6.9375 C 7.113281 -7.238281 7.28125 -7.671875 7.28125 -8.234375 C 7.28125 -9.460938 6.640625 -10.078125 5.359375 -10.078125 L 2.796875 -10.078125 L 2.796875 -6.484375 Z M 5.28125 -6.484375 "/></g></g></g><g fill="#ffffff" fill-opacity="1"><g transform="translate(176.218488, 258.309974)"><g/></g></g><g fill="#ffffff" fill-opacity="1"><g transform="translate(179.097798, 258.309974)"><g><path d="M 2.15625 0 C 2 0 1.863281 -0.0546875 1.75 -0.171875 C 1.644531 -0.285156 1.59375 -0.441406 1.59375 -0.640625 L 1.59375 -10.5625 C 1.59375 -10.757812 1.644531 -10.914062 1.75 -11.03125 C 1.863281 -11.144531 2 -11.203125 2.15625 -11.203125 L 5.125 -11.203125 C 5.675781 -11.203125 6.1875 -11.101562 6.65625 -10.90625 C 7.132812 -10.707031 7.539062 -10.414062 7.875 -10.03125 C 8.21875 -9.644531 8.484375 -9.164062 8.671875 -8.59375 C 8.859375 -8.03125 8.953125 -7.378906 8.953125 -6.640625 L 8.953125 -4.5625 C 8.953125 -3.820312 8.859375 -3.164062 8.671875 -2.59375 C 8.484375 -2.03125 8.21875 -1.554688 7.875 -1.171875 C 7.539062 -0.785156 7.132812 -0.492188 6.65625 -0.296875 C 6.1875 -0.0976562 5.675781 0 5.125 0 Z M 5.125 -1.125 C 5.507812 -1.125 5.859375 -1.191406 6.171875 -1.328125 C 6.492188 -1.460938 6.769531 -1.675781 7 -1.96875 C 7.238281 -2.257812 7.425781 -2.617188 7.5625 -3.046875 C 7.695312 -3.484375 7.765625 -3.988281 7.765625 -4.5625 L 7.765625 -6.640625 C 7.765625 -7.210938 7.695312 -7.710938 7.5625 -8.140625 C 7.425781 -8.578125 7.238281 -8.9375 7 -9.21875 C 6.769531 -9.507812 6.492188 -9.722656 6.171875 -9.859375 C 5.859375 -10.003906 5.507812 -10.078125 5.125 -10.078125 L 2.796875 -10.078125 L 2.796875 -1.125 Z M 5.125 -1.125 "/></g></g></g><g fill="#ffffff" fill-opacity="1"><g transform="translate(189.095402, 258.309974)"><g><path d="M 2.15625 0 C 2 0 1.863281 -0.0546875 1.75 -0.171875 C 1.644531 -0.285156 1.59375 -0.441406 1.59375 -0.640625 L 1.59375 -10.5625 C 1.59375 -10.757812 1.644531 -10.914062 1.75 -11.03125 C 1.863281 -11.144531 2 -11.203125 2.15625 -11.203125 L 7.84375 -11.203125 C 8 -11.203125 8.128906 -11.144531 8.234375 -11.03125 C 8.347656 -10.925781 8.40625 -10.796875 8.40625 -10.640625 C 8.40625 -10.484375 8.347656 -10.347656 8.234375 -10.234375 C 8.128906 -10.128906 8 -10.078125 7.84375 -10.078125 L 2.796875 -10.078125 L 2.796875 -6.234375 L 6.3125 -6.234375 C 6.476562 -6.234375 6.613281 -6.179688 6.71875 -6.078125 C 6.820312 -5.972656 6.875 -5.84375 6.875 -5.6875 C 6.875 -5.519531 6.820312 -5.382812 6.71875 -5.28125 C 6.613281 -5.175781 6.476562 -5.125 6.3125 -5.125 L 2.796875 -5.125 L 2.796875 -1.125 L 8 -1.125 C 8.15625 -1.125 8.285156 -1.066406 8.390625 -0.953125 C 8.503906 -0.847656 8.5625 -0.71875 8.5625 -0.5625 C 8.5625 -0.394531 8.503906 -0.257812 8.390625 -0.15625 C 8.285156 -0.0507812 8.15625 0 8 0 Z M 2.15625 0 "/></g></g></g><g fill="#ffffff" fill-opacity="1"><g transform="translate(197.97327, 258.309974)"><g><path d="M 4.15625 0.3125 C 3.40625 0.3125 2.75 0.15625 2.1875 -0.15625 C 1.625 -0.476562 1.207031 -0.851562 0.9375 -1.28125 C 0.832031 -1.4375 0.742188 -1.617188 0.671875 -1.828125 C 0.597656 -2.035156 0.5625 -2.195312 0.5625 -2.3125 C 0.5625 -2.476562 0.613281 -2.613281 0.71875 -2.71875 C 0.820312 -2.820312 0.957031 -2.875 1.125 -2.875 C 1.320312 -2.875 1.460938 -2.820312 1.546875 -2.71875 C 1.640625 -2.625 1.710938 -2.519531 1.765625 -2.40625 C 1.960938 -1.925781 2.269531 -1.535156 2.6875 -1.234375 C 3.101562 -0.941406 3.59375 -0.796875 4.15625 -0.796875 C 5 -0.796875 5.648438 -1.007812 6.109375 -1.4375 C 6.566406 -1.875 6.796875 -2.4375 6.796875 -3.125 C 6.796875 -3.570312 6.648438 -3.925781 6.359375 -4.1875 C 6.078125 -4.445312 5.71875 -4.664062 5.28125 -4.84375 C 4.851562 -5.019531 4.382812 -5.179688 3.875 -5.328125 C 3.375 -5.484375 2.90625 -5.679688 2.46875 -5.921875 C 2.039062 -6.160156 1.679688 -6.472656 1.390625 -6.859375 C 1.097656 -7.242188 0.953125 -7.757812 0.953125 -8.40625 C 0.953125 -8.863281 1.03125 -9.28125 1.1875 -9.65625 C 1.34375 -10.039062 1.566406 -10.367188 1.859375 -10.640625 C 2.160156 -10.921875 2.519531 -11.132812 2.9375 -11.28125 C 3.363281 -11.4375 3.851562 -11.515625 4.40625 -11.515625 C 4.90625 -11.515625 5.363281 -11.4375 5.78125 -11.28125 C 6.207031 -11.125 6.570312 -10.929688 6.875 -10.703125 C 7.175781 -10.472656 7.410156 -10.226562 7.578125 -9.96875 C 7.753906 -9.707031 7.84375 -9.476562 7.84375 -9.28125 C 7.84375 -9.070312 7.785156 -8.910156 7.671875 -8.796875 C 7.566406 -8.691406 7.4375 -8.640625 7.28125 -8.640625 C 7.070312 -8.640625 6.925781 -8.707031 6.84375 -8.84375 C 6.757812 -8.976562 6.664062 -9.125 6.5625 -9.28125 C 6.289062 -9.6875 5.953125 -9.972656 5.546875 -10.140625 C 5.140625 -10.316406 4.757812 -10.40625 4.40625 -10.40625 C 3.675781 -10.40625 3.117188 -10.222656 2.734375 -9.859375 C 2.347656 -9.492188 2.15625 -9.007812 2.15625 -8.40625 C 2.15625 -7.945312 2.300781 -7.585938 2.59375 -7.328125 C 2.882812 -7.066406 3.242188 -6.847656 3.671875 -6.671875 C 4.097656 -6.503906 4.566406 -6.34375 5.078125 -6.1875 C 5.585938 -6.03125 6.054688 -5.832031 6.484375 -5.59375 C 6.921875 -5.351562 7.28125 -5.039062 7.5625 -4.65625 C 7.851562 -4.269531 8 -3.757812 8 -3.125 C 8 -2.625 7.910156 -2.160156 7.734375 -1.734375 C 7.554688 -1.316406 7.300781 -0.953125 6.96875 -0.640625 C 6.644531 -0.335938 6.242188 -0.101562 5.765625 0.0625 C 5.296875 0.226562 4.757812 0.3125 4.15625 0.3125 Z M 4.15625 0.3125 "/></g></g></g><g fill="#ffffff" fill-opacity="1"><g transform="translate(206.531218, 258.309974)"><g><path d="M 2.15625 0.078125 C 2 0.078125 1.863281 0.0234375 1.75 -0.078125 C 1.644531 -0.191406 1.59375 -0.351562 1.59375 -0.5625 L 1.59375 -10.640625 C 1.59375 -10.835938 1.644531 -10.992188 1.75 -11.109375 C 1.863281 -11.222656 2 -11.28125 2.15625 -11.28125 C 2.582031 -11.28125 2.796875 -11.066406 2.796875 -10.640625 L 2.796875 -0.5625 C 2.796875 -0.132812 2.582031 0.078125 2.15625 0.078125 Z M 2.15625 0.078125 "/></g></g></g><g fill="#ffffff" fill-opacity="1"><g transform="translate(210.930167, 258.309974)"><g><path d="M 4.875 0.3125 C 4.3125 0.3125 3.796875 0.210938 3.328125 0.015625 C 2.859375 -0.171875 2.453125 -0.457031 2.109375 -0.84375 C 1.773438 -1.226562 1.515625 -1.707031 1.328125 -2.28125 C 1.140625 -2.851562 1.046875 -3.503906 1.046875 -4.234375 L 1.046875 -6.953125 C 1.046875 -7.691406 1.140625 -8.347656 1.328125 -8.921875 C 1.515625 -9.492188 1.773438 -9.96875 2.109375 -10.34375 C 2.453125 -10.726562 2.859375 -11.019531 3.328125 -11.21875 C 3.796875 -11.414062 4.3125 -11.515625 4.875 -11.515625 C 5.375 -11.515625 5.832031 -11.4375 6.25 -11.28125 C 6.675781 -11.125 7.039062 -10.929688 7.34375 -10.703125 C 7.65625 -10.472656 7.894531 -10.226562 8.0625 -9.96875 C 8.226562 -9.707031 8.3125 -9.476562 8.3125 -9.28125 C 8.3125 -9.070312 8.257812 -8.910156 8.15625 -8.796875 C 8.050781 -8.691406 7.921875 -8.640625 7.765625 -8.640625 C 7.554688 -8.640625 7.410156 -8.707031 7.328125 -8.84375 C 7.242188 -8.976562 7.148438 -9.125 7.046875 -9.28125 C 6.773438 -9.6875 6.4375 -9.972656 6.03125 -10.140625 C 5.625 -10.316406 5.238281 -10.40625 4.875 -10.40625 C 4.488281 -10.40625 4.132812 -10.332031 3.8125 -10.1875 C 3.5 -10.050781 3.222656 -9.835938 2.984375 -9.546875 C 2.753906 -9.265625 2.570312 -8.90625 2.4375 -8.46875 C 2.300781 -8.039062 2.234375 -7.535156 2.234375 -6.953125 L 2.234375 -4.234375 C 2.234375 -3.660156 2.300781 -3.15625 2.4375 -2.71875 C 2.570312 -2.289062 2.753906 -1.929688 2.984375 -1.640625 C 3.222656 -1.359375 3.5 -1.144531 3.8125 -1 C 4.132812 -0.863281 4.488281 -0.796875 4.875 -0.796875 C 5.445312 -0.796875 5.9375 -0.9375 6.34375 -1.21875 C 6.757812 -1.5 7.070312 -1.863281 7.28125 -2.3125 L 7.28125 -5.046875 L 5.28125 -5.046875 C 5.125 -5.046875 4.988281 -5.097656 4.875 -5.203125 C 4.769531 -5.304688 4.71875 -5.4375 4.71875 -5.59375 C 4.71875 -5.757812 4.769531 -5.894531 4.875 -6 C 4.988281 -6.101562 5.125 -6.15625 5.28125 -6.15625 L 7.921875 -6.15625 C 8.078125 -6.15625 8.207031 -6.097656 8.3125 -5.984375 C 8.425781 -5.878906 8.484375 -5.722656 8.484375 -5.515625 L 8.484375 -2.3125 C 8.484375 -2.195312 8.441406 -2.035156 8.359375 -1.828125 C 8.285156 -1.617188 8.195312 -1.4375 8.09375 -1.28125 C 7.832031 -0.851562 7.421875 -0.476562 6.859375 -0.15625 C 6.296875 0.15625 5.632812 0.3125 4.875 0.3125 Z M 4.875 0.3125 "/></g></g></g><g fill="#ffffff" fill-opacity="1"><g transform="translate(220.447885, 258.309974)"><g><path d="M 2.15625 0.078125 C 2 0.078125 1.863281 0.0234375 1.75 -0.078125 C 1.644531 -0.191406 1.59375 -0.351562 1.59375 -0.5625 L 1.59375 -10.640625 C 1.59375 -10.835938 1.644531 -10.992188 1.75 -11.109375 C 1.863281 -11.222656 2 -11.28125 2.15625 -11.28125 C 2.363281 -11.28125 2.523438 -11.222656 2.640625 -11.109375 C 2.753906 -11.003906 2.859375 -10.875 2.953125 -10.71875 L 7.765625 -2.640625 L 7.84375 -2.640625 L 7.84375 -10.640625 C 7.84375 -10.835938 7.894531 -10.992188 8 -11.109375 C 8.101562 -11.222656 8.238281 -11.28125 8.40625 -11.28125 C 8.832031 -11.28125 9.046875 -11.066406 9.046875 -10.640625 L 9.046875 -0.5625 C 9.046875 -0.351562 8.988281 -0.191406 8.875 -0.078125 C 8.769531 0.0234375 8.640625 0.078125 8.484375 0.078125 C 8.273438 0.078125 8.113281 0.0234375 8 -0.078125 C 7.882812 -0.179688 7.78125 -0.316406 7.6875 -0.484375 L 2.875 -8.5625 L 2.796875 -8.5625 L 2.796875 -0.5625 C 2.796875 -0.132812 2.582031 0.078125 2.15625 0.078125 Z M 2.15625 0.078125 "/></g></g></g></svg>