<svg xmlns="http://www.w3.org/2000/svg" xmlns:xlink="http://www.w3.org/1999/xlink" width="500" zoomAndPan="magnify" viewBox="0 0 375 374.999991" height="500" preserveAspectRatio="xMidYMid meet" version="1.0"><defs><filter x="0%" y="0%" width="100%" height="100%" id="451735e3b7"><feColorMatrix values="0 0 0 0 1 0 0 0 0 1 0 0 0 0 1 0 0 0 1 0" color-interpolation-filters="sRGB"/></filter><mask id="5700e73c08"><g filter="url(#451735e3b7)"><rect x="-37.5" width="450" fill="#000000" y="-37.499999" height="449.999989" fill-opacity="0.7"/></g></mask><clipPath id="fc2b11ff5b"><path d="M 0.265625 1 L 175 1 L 175 176.355469 L 0.265625 176.355469 Z M 0.265625 1 " clip-rule="nonzero"/></clipPath><clipPath id="49b0be0f3f"><path d="M 193 1 L 368.515625 1 L 368.515625 176.355469 L 193 176.355469 Z M 193 1 " clip-rule="nonzero"/></clipPath><clipPath id="ceef7c6995"><path d="M 97 1 L 272 1 L 272 176.355469 L 97 176.355469 Z M 97 1 " clip-rule="nonzero"/></clipPath><clipPath id="04749172ef"><rect x="0" width="370" y="0" height="177"/></clipPath></defs><rect x="-37.5" width="450" fill="#ffffff" y="-37.499999" height="449.999989" fill-opacity="1"/><rect x="-37.5" width="450" fill="#ffffff" y="-37.499999" height="449.999989" fill-opacity="1"/><g mask="url(#5700e73c08)"><g transform="matrix(1, 0, 0, 1, 3, 99)"><g clip-path="url(#04749172ef)"><g clip-path="url(#fc2b11ff5b)"><path fill="#ef4dc1" d="M 87.550781 1.164062 C 135.757812 1.164062 174.832031 40.308594 174.832031 88.605469 C 174.832031 136.898438 135.757812 176.042969 87.550781 176.042969 C 39.339844 176.042969 0.265625 136.898438 0.265625 88.605469 C 0.265625 40.308594 39.339844 1.164062 87.550781 1.164062 Z M 87.550781 1.164062 " fill-opacity="1" fill-rule="nonzero"/></g><g clip-path="url(#49b0be0f3f)"><path fill="#0ec6e5" d="M 281.234375 1.164062 C 329.441406 1.164062 368.515625 40.308594 368.515625 88.605469 C 368.515625 136.898438 329.441406 176.042969 281.234375 176.042969 C 233.023438 176.042969 193.949219 136.898438 193.949219 88.605469 C 193.949219 40.308594 233.023438 1.164062 281.234375 1.164062 Z M 281.234375 1.164062 " fill-opacity="1" fill-rule="nonzero"/></g><g clip-path="url(#ceef7c6995)"><path fill="#8419bc" d="M 184.417969 1.164062 C 232.625 1.164062 271.699219 40.308594 271.699219 88.605469 C 271.699219 136.898438 232.625 176.042969 184.417969 176.042969 C 136.207031 176.042969 97.082031 136.898438 97.082031 88.605469 C 97.082031 40.308594 136.207031 1.164062 184.417969 1.164062 Z M 184.417969 1.164062 " fill-opacity="1" fill-rule="nonzero"/></g><path fill="#ef4dc1" d="M 135.957031 15.839844 C 159.394531 31.507812 174.832031 58.265625 174.832031 88.605469 C 174.832031 118.945312 159.394531 145.703125 135.957031 161.371094 C 112.523438 145.703125 97.082031 118.945312 97.082031 88.605469 C 97.082031 58.265625 112.523438 31.507812 135.957031 15.839844 Z M 135.957031 15.839844 " fill-opacity="0.5" fill-rule="nonzero"/><path fill="#0ec6e5" d="M 232.824219 15.839844 C 256.257812 31.507812 271.699219 58.265625 271.699219 88.605469 C 271.699219 118.945312 256.257812 145.703125 232.824219 161.371094 C 209.390625 145.703125 193.949219 118.945312 193.949219 88.605469 C 193.949219 58.265625 209.390625 31.507812 232.824219 15.839844 Z M 232.824219 15.839844 " fill-opacity="0.5" fill-rule="nonzero"/></g></g></g></svg>